<svg width="22" height="31" viewBox="0 0 22 31" fill="none" xmlns="http://www.w3.org/2000/svg">
<path d="M19.8111 9.75485C19.8111 4.75862 15.7507 0.698242 10.7545 0.698242C5.75829 0.698242 1.69791 4.75862 1.69791 9.75485C1.69791 16.5473 10.7545 26.3586 10.7545 26.3586C10.7545 26.3586 19.8111 16.5473 19.8111 9.75485ZM7.73565 9.75485C7.73565 8.09447 9.09414 6.73598 10.7545 6.73598C12.4149 6.73598 13.7734 8.09447 13.7734 9.75485C13.7734 10.5555 13.4553 11.3234 12.8892 11.8895C12.323 12.4557 11.5552 12.7737 10.7545 12.7737C9.95386 12.7737 9.186 12.4557 8.61985 11.8895C8.0537 11.3234 7.73565 10.5555 7.73565 9.75485ZM0.188477 27.8681V30.8869H21.3205V27.8681H0.188477Z" fill="#00B047"/>
</svg>
